<?xml version="1.0" encoding="utf-8" ?>
<svg baseProfile="full" height="200" version="1.1" viewBox="0,0,800,200" width="800" xmlns="http://www.w3.org/2000/svg" xmlns:ev="http://www.w3.org/2001/xml-events" xmlns:xlink="http://www.w3.org/1999/xlink"><defs /><path d="M490.13,89.96 L489.61,90.47 L489.61,132.19 L490.13,132.70 L500.94,132.70 L501.46,132.19 L501.46,90.99 L500.94,90.47 L500.94,89.96 Z" fill="white" /><path d="M261.97,89.96 L261.97,121.89 L264.55,128.07 L269.70,132.70 L274.85,134.25 L278.45,134.25 L282.58,133.22 L287.73,130.13 L289.79,128.07 L290.82,128.58 L290.82,132.70 L302.15,132.70 L302.15,89.96 L290.82,89.96 L290.30,90.47 L290.30,119.31 L288.76,122.40 L285.67,125.49 L283.09,126.52 L277.94,126.01 L274.85,122.92 L273.82,120.34 L273.82,90.47 L273.30,89.96 Z" fill="white" /><path d="M415.45,89.44 L414.42,89.44 L413.91,89.96 L411.85,89.96 L411.33,90.47 L408.76,90.99 L405.67,92.53 L401.55,95.62 L401.03,95.11 L401.03,90.47 L400.52,89.96 L390.21,89.96 L389.70,90.47 L389.70,132.19 L390.21,132.70 L400.52,132.70 L401.03,132.19 L401.03,107.98 L401.55,107.47 L401.55,106.44 L402.58,104.38 L405.67,101.29 L408.76,99.74 L410.30,99.74 L410.82,99.23 L412.36,99.23 L412.88,98.71 L415.45,98.71 Z" fill="white" /><path d="M697.17,90.47 L694.08,92.02 L690.47,95.62 L689.44,97.68 L688.93,103.35 L690.47,107.47 L694.08,111.07 L696.14,112.10 L711.59,116.22 L714.16,118.80 L714.68,121.89 L713.65,123.95 L711.07,126.01 L705.41,126.52 L702.83,125.49 L699.74,122.40 L698.20,119.31 L688.41,119.31 L687.90,121.37 L689.96,126.52 L694.08,130.64 L703.35,133.73 L710.56,133.73 L719.31,131.16 L724.46,126.52 L725.49,123.95 L726.01,118.28 L724.46,114.16 L721.89,111.07 L717.77,108.50 L701.80,104.38 L699.74,102.32 L699.23,100.26 L699.74,98.71 L702.83,96.14 L709.01,95.62 L713.65,99.23 L714.68,101.80 L723.95,101.80 L723.95,98.71 L722.40,95.62 L720.34,93.05 L713.13,89.44 L702.83,88.93 Z" fill="white" /><path d="M659.57,88.93 L659.06,89.44 L655.97,89.44 L655.45,89.96 L652.36,90.47 L646.70,93.56 L643.61,96.65 L640.00,102.83 L639.48,106.44 L638.97,106.95 L638.97,111.07 L638.45,111.59 L638.97,112.10 L638.97,116.74 L639.48,117.25 L639.48,118.80 L640.00,119.31 L640.52,121.89 L642.58,125.49 L645.67,129.10 L646.18,129.10 L647.73,130.64 L652.88,133.22 L657.51,133.73 L658.03,134.25 L663.18,134.25 L663.69,133.73 L668.33,133.22 L669.87,132.19 L670.90,132.19 L672.96,131.16 L676.57,128.07 L677.08,128.07 L679.66,124.98 L681.72,121.37 L681.72,120.34 L682.75,118.28 L682.75,116.74 L683.26,116.22 L683.26,106.44 L682.75,105.92 L682.75,104.38 L680.69,99.23 L675.02,93.05 L671.42,90.99 L670.39,90.99 L668.33,89.96 L666.78,89.96 L666.27,89.44 L663.18,89.44 L662.66,88.93 Z" fill="white" /><path d="M320.69,89.96 L315.02,93.05 L311.93,97.68 L311.42,104.38 L312.45,106.95 L315.54,110.56 L318.11,112.10 L334.59,116.74 L336.14,118.28 L337.17,121.37 L335.11,124.98 L332.02,126.52 L327.38,126.52 L324.29,124.98 L322.23,122.92 L320.69,119.31 L310.39,119.31 L309.87,120.34 L310.90,124.46 L315.54,130.13 L320.69,132.70 L325.84,133.73 L333.05,133.73 L339.23,132.19 L343.86,129.61 L346.95,126.01 L347.98,122.92 L347.98,117.25 L346.44,113.65 L342.83,110.04 L339.74,108.50 L323.26,103.86 L321.72,101.80 L321.72,99.74 L324.29,96.65 L326.35,95.62 L330.99,95.62 L335.11,98.20 L336.65,101.80 L346.44,101.80 L345.92,97.68 L341.80,92.53 L337.17,89.96 L333.05,88.93 L325.32,88.93 Z" fill="white" /><path d="M515.36,92.53 L512.27,96.14 L510.73,99.74 L510.73,101.29 L521.55,101.29 L522.58,98.71 L524.64,96.14 L527.73,94.59 L531.33,94.59 L532.88,95.11 L535.97,98.20 L537.00,103.35 L535.97,105.92 L522.58,106.44 L517.42,107.98 L512.79,110.56 L509.70,114.16 L508.15,119.31 L508.67,124.46 L510.73,128.58 L513.30,131.16 L519.48,133.73 L528.76,133.22 L532.36,131.67 L535.97,129.10 L537.51,130.13 L538.03,132.70 L547.81,132.70 L548.33,132.19 L548.33,102.83 L545.75,95.62 L542.15,92.02 L538.03,89.96 L530.30,88.41 L521.55,89.44 Z" fill="white" /><path d="M424.21,92.53 L421.12,96.14 L419.57,99.74 L419.57,101.29 L430.39,101.29 L431.93,97.68 L433.99,95.62 L436.57,94.59 L440.17,94.59 L441.72,95.11 L444.29,97.68 L445.32,99.74 L445.32,105.41 L444.81,105.92 L431.42,106.44 L427.30,107.47 L422.15,110.04 L419.06,113.13 L417.00,118.80 L417.00,122.92 L419.06,128.07 L422.15,131.16 L427.81,133.73 L437.60,133.22 L441.20,131.67 L444.81,129.10 L446.35,130.13 L446.87,132.70 L456.65,132.70 L457.17,102.32 L456.65,99.74 L454.59,95.62 L451.50,92.53 L446.87,89.96 L439.14,88.41 L430.39,89.44 Z" fill="white" /><path d="M749.18,79.14 L745.06,81.72 L738.88,84.81 L738.88,89.44 L738.37,89.96 L729.61,89.96 L729.61,98.20 L737.85,98.20 L738.88,99.23 L738.88,125.49 L739.40,126.01 L739.40,127.55 L741.97,131.16 L746.61,133.22 L755.36,133.22 L755.88,132.70 L758.45,132.70 L760.00,131.67 L760.00,126.01 L754.33,126.52 L752.79,126.01 L750.21,122.92 L750.21,99.23 L751.24,98.20 L760.00,98.20 L760.00,90.47 L759.48,89.96 L750.73,89.96 L750.21,89.44 L750.21,79.14 Z" fill="white" /><path d="M360.86,84.29 L360.34,84.81 L360.34,88.93 L359.31,89.96 L351.07,89.96 L350.56,90.47 L350.56,97.68 L351.07,98.20 L359.31,98.20 L360.34,99.23 L360.34,127.04 L361.37,129.10 L363.95,131.67 L366.01,132.70 L367.55,132.70 L368.07,133.22 L376.31,133.22 L376.82,132.70 L379.91,132.70 L380.94,132.19 L380.94,126.01 L375.28,126.52 L373.73,126.01 L371.67,123.43 L371.16,121.89 L371.16,99.23 L372.19,98.20 L380.94,98.20 L381.46,97.68 L381.46,90.47 L380.94,89.96 L372.19,89.96 L371.16,88.93 L371.16,79.14 Z" fill="white" /><path d="M629.18,73.48 L623.52,71.93 L591.07,71.93 L591.07,132.70 L603.43,132.70 L603.95,132.19 L603.95,109.53 L606.01,108.50 L617.85,108.50 L626.61,106.44 L631.24,103.86 L636.39,98.20 L638.45,92.02 L637.94,83.26 L634.85,77.60 Z" fill="white" /><path d="M489.61,71.93 L489.61,79.66 L490.13,80.17 L500.94,80.17 L501.46,79.66 L501.46,71.93 L500.94,71.42 L490.13,71.42 Z" fill="white" /><path d="M467.98,71.42 L467.98,132.70 L478.80,132.70 L479.31,132.19 L479.31,71.93 L478.80,71.42 Z" fill="white" /><path d="M218.20,71.42 L216.65,73.48 L194.51,132.70 L207.38,132.70 L211.50,120.34 L212.53,119.31 L237.77,119.31 L239.31,121.37 L243.43,132.70 L257.34,132.70 L232.10,71.42 Z" fill="white" /><path d="M77.60,49.79 L70.90,52.36 L62.15,57.51 L56.48,62.15 L48.24,71.93 L43.61,80.69 L41.55,86.87 L40.00,95.11 L40.00,106.44 L43.09,119.31 L47.73,128.58 L54.94,137.85 L60.09,142.49 L68.84,148.15 L76.05,151.24 L78.11,150.73 L78.11,50.82 Z" fill="white" /><path d="M90.99,46.70 L90.47,51.85 L97.68,52.36 L104.38,54.42 L114.16,60.09 L121.89,68.84 L126.01,80.17 L126.01,90.47 L124.98,95.11 L118.80,106.44 L109.01,114.68 L100.26,118.28 L93.05,119.31 L92.53,120.34 L92.53,152.79 L99.23,153.30 L110.56,150.73 L119.83,146.61 L127.55,141.46 L134.25,135.28 L139.40,128.58 L144.55,118.28 L147.12,107.98 L147.64,96.14 L146.09,86.87 L140.43,73.48 L135.79,66.78 L129.10,60.09 L119.31,53.39 L111.07,49.79 L100.26,47.21 Z" fill="white" /></svg>