<?xml version="1.0" encoding="utf-8" ?>
<svg baseProfile="full" height="200" version="1.1" viewBox="0,0,800,200" width="800" xmlns="http://www.w3.org/2000/svg" xmlns:ev="http://www.w3.org/2001/xml-events" xmlns:xlink="http://www.w3.org/1999/xlink"><defs /><path d="M583.95,58.73 L577.83,61.78 L568.66,70.96 L564.59,79.11 L563.57,98.47 L566.62,105.61 L578.85,116.82 L626.75,133.12 L634.90,141.27 L634.90,146.37 L624.71,155.54 L605.35,157.58 L597.20,155.54 L589.04,150.45 L584.97,144.33 L583.95,138.22 L560.51,138.22 L561.53,150.45 L566.62,161.66 L571.72,167.77 L583.95,174.90 L602.29,178.98 L625.73,177.96 L644.08,171.85 L654.27,161.66 L660.38,149.43 L660.38,133.12 L656.31,125.99 L648.15,116.82 L638.98,111.72 L594.14,96.43 L589.04,91.34 L588.03,85.22 L596.18,77.07 L616.56,76.05 L624.71,79.11 L630.83,85.22 L633.89,93.38 L656.31,93.38 L656.31,85.22 L652.23,74.01 L638.98,60.76 L628.79,56.69 L602.29,54.65 Z" fill="white" /><path d="M492.23,54.65 L477.96,57.71 L468.79,61.78 L452.48,75.03 L447.39,82.17 L441.27,97.45 L439.24,122.93 L442.29,138.22 L449.43,153.50 L462.68,167.77 L483.06,177.96 L500.38,180.00 L514.65,177.96 L534.01,168.79 L542.17,161.66 L549.30,151.46 L554.39,137.20 L529.94,137.20 L526.88,143.31 L518.73,151.46 L509.55,155.54 L497.32,156.56 L488.15,154.52 L475.92,147.39 L467.77,137.20 L464.71,123.95 L466.75,121.91 L555.41,121.91 L555.41,110.70 L548.28,83.18 L536.05,66.88 L516.69,56.69 Z" fill="white" /><path d="M326.11,54.65 L325.10,55.67 L313.89,56.69 L302.68,60.76 L291.46,67.90 L280.25,79.11 L272.10,93.38 L269.04,102.55 L268.03,127.01 L272.10,141.27 L280.25,155.54 L291.46,166.75 L300.64,172.87 L313.89,177.96 L325.10,180.00 L335.29,180.00 L346.50,177.96 L362.80,170.83 L368.92,166.75 L379.11,156.56 L384.20,149.43 L390.32,135.16 L392.36,125.99 L392.36,108.66 L388.28,93.38 L384.20,85.22 L379.11,78.09 L368.92,67.90 L359.75,61.78 L346.50,56.69 Z" fill="white" /><path d="M195.67,54.65 L172.23,61.78 L151.85,79.11 L143.69,93.38 L139.62,105.61 L139.62,129.04 L148.79,150.45 L162.04,165.73 L182.42,176.94 L203.82,180.00 L224.20,175.92 L240.51,166.75 L255.80,149.43 L261.91,133.12 L237.45,133.12 L234.39,139.24 L224.20,149.43 L214.01,154.52 L194.65,155.54 L179.36,148.41 L171.21,140.25 L164.08,124.97 L164.08,109.68 L170.19,95.41 L183.44,83.18 L193.63,79.11 L203.82,78.09 L223.18,84.20 L232.36,92.36 L238.47,101.53 L261.91,101.53 L261.91,98.47 L251.72,79.11 L236.43,64.84 L218.09,56.69 Z" fill="white" /><path d="M402.55,20.00 L401.53,21.02 L401.53,178.98 L402.55,180.00 L427.01,180.00 L428.03,178.98 L428.03,21.02 L427.01,20.00 Z" fill="white" /></svg>