<?xml version="1.0" encoding="utf-8" ?>
<svg baseProfile="full" height="200" version="1.1" viewBox="0,0,800,200" width="800" xmlns="http://www.w3.org/2000/svg" xmlns:ev="http://www.w3.org/2001/xml-events" xmlns:xlink="http://www.w3.org/1999/xlink"><defs /><path d="M678.00,73.84 L666.29,87.11 L660.82,99.61 L658.48,112.10 L658.48,125.38 L660.04,134.75 L663.17,144.12 L669.41,155.05 L682.69,166.77 L699.09,172.23 L710.80,172.23 L722.52,169.11 L729.54,165.21 L738.13,156.62 L739.70,169.89 L759.22,169.89 L760.00,68.37 L739.70,67.59 L738.13,79.31 L727.20,69.93 L713.15,65.25 L694.40,66.03 L687.38,68.37 Z" fill="white" /><path d="M501.52,68.37 L491.37,73.84 L484.34,80.09 L478.09,88.68 L472.62,101.95 L471.06,109.76 L471.06,127.72 L476.53,145.68 L482.00,154.27 L489.02,161.30 L500.74,168.33 L510.89,171.45 L535.10,171.45 L546.81,168.33 L556.18,163.64 L564.77,157.40 L564.77,155.05 L554.62,142.56 L544.47,149.59 L533.54,153.49 L520.26,154.27 L512.45,152.71 L503.86,148.03 L499.18,143.34 L494.49,135.53 L492.93,126.94 L567.90,126.16 L567.11,106.64 L560.09,86.33 L549.15,73.84 L535.88,66.81 L528.85,65.25 L513.23,65.25 Z" fill="white" /><path d="M596.01,37.14 L595.23,66.81 L575.71,67.59 L574.92,84.77 L593.67,84.77 L595.23,86.33 L595.23,133.97 L598.35,153.49 L602.26,160.52 L608.50,166.77 L614.75,169.89 L625.68,172.23 L635.05,172.23 L647.55,169.89 L647.55,152.71 L630.37,153.49 L624.90,151.93 L618.66,145.68 L616.31,136.31 L616.31,86.33 L618.66,84.77 L647.55,84.77 L647.55,67.59 L617.87,67.59 L616.31,66.03 L616.31,37.14 Z" fill="white" /><path d="M303.95,32.45 L304.73,169.89 L325.81,169.11 L326.59,66.03 L367.20,137.09 L388.29,136.31 L428.11,66.03 L428.89,169.89 L449.98,169.89 L449.98,32.45 L423.43,33.23 L378.13,115.23 L331.28,32.45 Z" fill="white" /><path d="M51.71,66.81 L41.56,98.83 L40.00,133.97 L46.25,153.49 L61.08,168.33 L82.95,172.23 L93.10,169.89 L103.25,163.64 L118.87,145.68 L148.55,95.70 L180.56,147.25 L199.31,166.77 L215.71,172.23 L232.10,170.67 L243.04,164.43 L251.63,152.71 L257.09,133.19 L257.09,109.76 L251.63,81.65 L243.82,62.91 L235.23,49.63 L226.64,40.26 L211.80,30.89 L199.31,27.77 L181.34,30.89 L166.51,41.04 L151.67,58.22 L125.90,34.01 L107.16,27.77 L92.32,28.55 L72.80,38.70 L63.43,48.07 Z" fill="white" /></svg>