<?xml version="1.0" encoding="utf-8" ?>
<svg baseProfile="full" height="200" version="1.1" viewBox="0,0,800,200" width="800" xmlns="http://www.w3.org/2000/svg" xmlns:ev="http://www.w3.org/2001/xml-events" xmlns:xlink="http://www.w3.org/1999/xlink"><defs /><path d="M389.43,113.58 L389.43,110.57 L380.38,101.51 L380.38,95.47 L389.43,86.42 L386.42,83.40 L383.40,83.40 L380.38,86.42 L377.36,86.42 L371.32,92.45 L368.30,89.43 L368.30,71.32 L362.26,71.32 L362.26,80.38 L359.25,83.40 L356.23,83.40 L353.21,86.42 L341.13,86.42 L341.13,89.43 L338.11,92.45 L335.09,92.45 L329.06,86.42 L326.04,86.42 L323.02,83.40 L316.98,83.40 L313.96,86.42 L310.94,86.42 L304.91,92.45 L301.89,89.43 L301.89,86.42 L304.91,83.40 L304.91,74.34 L298.87,74.34 L295.85,77.36 L295.85,86.42 L289.81,95.47 L286.79,92.45 L286.79,83.40 L283.77,80.38 L283.77,74.34 L271.70,74.34 L271.70,80.38 L268.68,83.40 L268.68,92.45 L265.66,95.47 L259.62,89.43 L259.62,77.36 L256.60,74.34 L250.57,74.34 L250.57,86.42 L253.58,89.43 L253.58,98.49 L256.60,101.51 L256.60,110.57 L262.64,116.60 L271.70,113.58 L271.70,101.51 L277.74,92.45 L280.75,95.47 L280.75,101.51 L283.77,104.53 L283.77,113.58 L286.79,113.58 L289.81,116.60 L292.83,116.60 L295.85,113.58 L295.85,110.57 L301.89,101.51 L304.91,104.53 L307.92,113.58 L310.94,113.58 L313.96,116.60 L329.06,116.60 L335.09,110.57 L338.11,110.57 L344.15,116.60 L347.17,113.58 L347.17,101.51 L353.21,92.45 L359.25,92.45 L362.26,95.47 L362.26,113.58 L368.30,113.58 L368.30,110.57 L371.32,107.55 L374.34,107.55 L380.38,113.58 L383.40,113.58 L386.42,116.60 Z" fill="white" /><path d="M473.96,20.00 L395.47,98.49 L395.47,101.51 L473.96,180.00 L549.43,104.53 L549.43,98.49 L534.34,83.40 L534.34,80.38 L531.32,80.38 L473.96,23.02 Z" fill="white" /></svg>